<?xml version="1.0" encoding="utf-8"?><!-- Uploaded to: SVG Repo, www.svgrepo.com, Generator: SVG Repo Mixer Tools -->
<svg width="800px" height="800px" viewBox="0 0 24 24" fill="none" xmlns="http://www.w3.org/2000/svg">
<path fill-rule="evenodd" clip-rule="evenodd" d="M5 1C4.44772 1 4 1.44772 4 2V22C4 22.5523 4.44772 23 5 23C5.55228 23 6 22.5523 6 22V14H19C19.3603 14 19.6927 13.8062 19.8702 13.4927C20.0477 13.1792 20.0429 12.7944 19.8575 12.4855L17.1662 8L19.8575 3.5145C20.0429 3.20556 20.0477 2.82081 19.8702 2.5073C19.6927 2.19379 19.3603 2 19 2L6 2C6 1.44772 5.55228 1 5 1ZM6 4V12H17.2338L15.1425 8.5145C14.9525 8.19781 14.9525 7.80219 15.1425 7.4855L17.2338 4H6Z" fill="#858585"/>
</svg>